<mxfile host="app.diagrams.net" modified="2023-11-29T17:45:51.802Z" agent="Mozilla/5.0 (Macintosh; Intel Mac OS X 10_15_7) AppleWebKit/537.36 (KHTML, like Gecko) Chrome/115.0.0.0 Safari/537.36" version="21.7.1" etag="9BwvvYJXIKZxiPWz_u9N" type="github">
  <diagram name="1 oldal" id="ykaRIRSyfRKBKxqF0XR5">
    <mxGraphModel>
      <root>
        <mxCell id="0" />
        <mxCell id="1" parent="0" />
      </root>
    </mxGraphModel>
  </diagram>
</mxfile>
